<svg xmlns="http://www.w3.org/2000/svg" xmlns:xlink="http://www.w3.org/1999/xlink" version="1.1" x="0px" y="0px" viewBox="0 0 1024 1280" style="enable-background:new 0 0 1024 1024;" xml:space="preserve"><path d="M902.4,554.4c-10.9,10.9-27,17.6-42.4,17.6h-1.2c-9.1,0.1-18.1,0-27.2,0H572v288c0,16.3-6.8,30.7-17.6,42.4  c-10.8,11.8-26.9,16.9-42.4,17.6c-14.9,0.6-32-7.2-42.4-17.6c-10.9-10.9-17.6-27-17.6-42.4v-1.2c-0.1-9.1,0-18.1,0-27.2V572H164  c-16.2,0-30.7-6.8-42.4-17.6c-11.8-10.8-16.9-26.9-17.6-42.4c-0.7-14.9,7.2-32,17.6-42.4c10.9-10.9,27-17.6,42.4-17.6h1.2  c9.1-0.1,18.1,0,27.2,0H452V164c0-16.3,6.8-30.7,17.6-42.4c10.8-11.8,26.9-16.9,42.4-17.6c14.9-0.7,32,7.2,42.4,17.6  c10.9,10.9,17.6,27,17.6,42.4v1.2c0.1,9.1,0,18.1,0,27.2V452h288c16.3,0,30.7,6.8,42.4,17.6c11.8,10.8,16.9,26.9,17.6,42.4  C920.6,526.9,912.8,544,902.4,554.4z"/></svg>